<?xml version="1.0" standalone="no"?>
<!DOCTYPE svg PUBLIC "-//W3C//DTD SVG 20010904//EN"
 "http://www.w3.org/TR/2001/REC-SVG-20010904/DTD/svg10.dtd">
<svg version="1.0" xmlns="http://www.w3.org/2000/svg"
 width="240.000000pt" height="240.000000pt" viewBox="0 0 240.000000 240.000000"
 preserveAspectRatio="xMidYMid meet">
<metadata>
Created by potrace 1.14, written by Peter Selinger 2001-2017
</metadata>
<g transform="translate(0.000000,240.000000) scale(0.100000,-0.100000)"
fill="#000000" stroke="none">
<path d="M1743 2319 c-55 -10 -115 -41 -185 -95 -60 -47 -72 -51 -85 -31 -18
29 -80 66 -116 69 -52 3 -106 -42 -129 -108 -23 -69 -15 -233 17 -323 13 -37
12 -39 -13 -64 -14 -14 -26 -36 -27 -49 -1 -20 -11 -24 -81 -38 -43 -9 -96
-22 -117 -29 -21 -7 -44 -14 -50 -15 -13 -3 -23 -7 -109 -42 -56 -24 -88 -40
-178 -92 -57 -34 -64 -40 -174 -147 -79 -78 -182 -215 -186 -250 -1 -5 -5 -14
-10 -20 -9 -11 -60 -131 -66 -154 -2 -9 -11 -43 -20 -76 -26 -93 -21 -307 8
-342 6 -7 7 -13 4 -13 -4 0 10 -32 31 -72 65 -125 193 -229 333 -273 247 -77
625 -100 990 -60 56 7 189 38 260 62 142 47 240 111 303 196 93 126 80 323
-32 490 -32 47 -123 144 -157 168 -15 10 -24 29 -28 64 -17 133 -30 180 -79
285 -32 69 -121 190 -140 190 -8 0 -8 3 0 11 5 5 8 27 6 48 l-4 37 58 19 c32
10 61 19 64 19 13 2 155 96 185 123 17 15 37 38 43 50 24 47 12 72 -64 130
l-29 23 11 75 c11 76 1 155 -18 155 -5 0 -9 7 -9 15 0 21 -78 63 -125 68 -22
2 -59 0 -82 -4z"/>
</g>
</svg>
